<svg width="35" height="32" viewBox="0 0 35 32" fill="none" xmlns="http://www.w3.org/2000/svg">
<path d="M16.0693 2.2082C16.5099 0.808919 18.4901 0.808919 18.9307 2.2082L21.3602 9.92341C21.6939 10.9829 22.6865 11.6952 23.7971 11.672L32.013 11.5002C33.5151 11.4688 34.1254 13.4201 32.8731 14.2502L26.2853 18.6166C25.3213 19.2556 24.9214 20.4724 25.3184 21.5587L28.0037 28.9051C28.5122 30.2961 26.9112 31.5041 25.7131 30.6335L18.9697 25.733C18.0934 25.0961 16.9066 25.0961 16.0303 25.733L9.2869 30.6335C8.08879 31.5041 6.48779 30.2961 6.99626 28.9051L9.68156 21.5587C10.0786 20.4724 9.67873 19.2556 8.71468 18.6166L2.12694 14.2502C0.874579 13.4201 1.48486 11.4688 2.987 11.5002L11.2029 11.672C12.3135 11.6952 13.3061 10.9829 13.6398 9.92341L16.0693 2.2082Z" fill="url(#paint0_linear_1_294)" stroke="#FC951E"/>
<defs>
<linearGradient id="paint0_linear_1_294" x1="38" y1="15" x2="-3" y2="16" gradientUnits="userSpaceOnUse">
<stop offset="0.454" stop-color="#FFFDFA"/>
<stop offset="0.494" stop-color="#FC951E"/>
</linearGradient>
</defs>
</svg>
