<svg width="35" height="32" viewBox="0 0 35 32" fill="none" xmlns="http://www.w3.org/2000/svg">
<path d="M15.5923 2.05803C16.1799 0.192312 18.8201 0.192312 19.4077 2.05803L21.8371 9.77323C22.104 10.6208 22.8982 11.1907 23.7866 11.1721L32.0026 11.0003C34.0054 10.9584 34.8191 13.5602 33.1493 14.6669L26.5616 19.0334C25.7903 19.5445 25.4704 20.518 25.7881 21.387L28.4734 28.7334C29.1513 30.5882 27.0166 32.1988 25.4192 31.0379L18.6757 26.1374C17.9747 25.628 17.0253 25.628 16.3243 26.1374L9.58084 31.0379C7.98335 32.1988 5.84869 30.5881 6.52665 28.7334L9.21195 21.387C9.5296 20.518 9.20969 19.5445 8.43845 19.0334L1.85071 14.6669C0.180894 13.5602 0.994589 10.9584 2.99745 11.0003L11.2134 11.1721C12.1018 11.1907 12.896 10.6208 13.1629 9.77323L15.5923 2.05803Z" fill="#FC951E"/>
</svg>
